<svg xmlns="http://www.w3.org/2000/svg" xmlns:xlink="http://www.w3.org/1999/xlink" viewBox="0 0 48 48">
<defs>
<filter id="b" width="175%" height="175%" x="-37.5%" y="-37.5%" filterUnits="objectBoundingBox">
<feOffset in="SourceAlpha" result="shadowOffsetOuter1"/>
<feGaussianBlur in="shadowOffsetOuter1" result="shadowBlurOuter1" stdDeviation="4"/>
<feColorMatrix in="shadowBlurOuter1" values="0 0 0 0 0 0 0 0 0 0 0 0 0 0 0 0 0 0 0.2 0"/>
</filter>
<filter id="d" width="244.6%" height="221.8%" x="-73.8%" y="-60.9%" filterUnits="objectBoundingBox">
<feMorphology in="SourceAlpha" operator="dilate" radius=".5" result="shadowSpreadOuter1"/>
<feOffset in="shadowSpreadOuter1" result="shadowOffsetOuter1"/>
<feGaussianBlur in="shadowOffsetOuter1" result="shadowBlurOuter1" stdDeviation="2"/>
<feColorMatrix in="shadowBlurOuter1" values="0 0 0 0 0 0 0 0 0 0 0 0 0 0 0 0 0 0 0.5 0"/>
</filter>
<path id="a" d="M3.2 0h25.6A3.2 3.2 0 0 1 32 3.2v25.6a3.2 3.2 0 0 1-3.2 3.2H3.2A3.2 3.2 0 0 1 0 28.8V3.2A3.2 3.2 0 0 1 3.2 0Z"/>
<path id="c" d="M16.792 21.432c0-.373.01-.688.032-.944h-1.408l.32-1.104H17c.341-1.461.99-2.573 1.944-3.336.955-.763 2.125-1.144 3.512-1.144.555 0 1.037.043 1.448.128.41.085.83.197 1.256.336.085.021.221.059.408.112.187.053.344.085.472.096l-.208 2.928h-1.44l-.448-2c-.117-.15-.325-.264-.624-.344a3.698 3.698 0 0 0-.96-.12c-.704 0-1.261.267-1.672.8-.41.533-.69 1.381-.84 2.544H23.4l-.32 1.104H19.8c-.021.32-.032.517-.032.592 0 .352.005.619.016.8h2.88l-.32 1.088H19.88c.139 1.067.421 1.867.848 2.4.427.533.981.8 1.664.8.363 0 .672-.048.928-.144a1.77 1.77 0 0 0 .672-.448l.704-1.728 1.264.192-.16 2.496c-.181.01-.47.08-.864.208-.533.15-1.01.267-1.432.352a7.726 7.726 0 0 1-1.512.128c-1.344 0-2.461-.384-3.352-1.152-.89-.768-1.464-1.803-1.72-3.104h-1.504l.32-1.088h1.056v-.448Z"/>
</defs>
<g fill="none">
<g transform="translate(8 8)">
<use xlink:href="#a" fill="#000" filter="url(#b)"/>
<use xlink:href="#a" fill="red"/>
</g>
<path fill="#00F" d="M8 18h32v11.2H8z"/>
<g transform="translate(8 8)">
<use xlink:href="#c" fill="#000" filter="url(#d)"/>
<use xlink:href="#c" fill="#FFF"/>
</g>
<path fill="#FFF" d="M11.2 8h25.6a3.2 3.2 0 0 1 3.2 3.2v7.2H8v-7.2A3.2 3.2 0 0 1 11.2 8Z"/>
<path fill="#00F" d="M12.285 12.797a9.24 9.24 0 0 1 7.507 0c.392 5.588-.86 8.755-3.754 9.501-2.894-.746-4.145-3.913-3.753-9.501Z"/>
<path fill="#FF0" d="m16.038 13.801.114.259.28-.03-.166.229.166.229-.28-.031-.114.26-.113-.26-.28.031.166-.229-.166-.229.28.03m-.652-1.684.198.385.49-.046-.291.34.29.338-.49-.045-.197.385-.2-.385-.488.045.29-.339-.29-.339.489.046m2.319-.385.198.385.49-.046-.29.34.29.338-.49-.045-.198.385-.199-.385-.489.045.291-.339-.29-.339.488.046"/>
<path fill="#FFF" d="m16.038 15.276.91 1.832.605-.814 1.514 2.035c0 .095-.013.189-.039.28a4.706 4.706 0 0 1-2.99 3.171 4.706 4.706 0 0 1-2.99-3.171 1.025 1.025 0 0 1-.038-.28l1.514-2.035.606.814.908-1.832Z"/>
<path fill="#00F" d="M13.048 18.609a1.006 1.006 0 0 0 1.476.602 1.003 1.003 0 0 1 1.01 0c.312.181.697.181 1.01 0a1.003 1.003 0 0 1 1.009 0c.27.156.595.18.883.062.289-.118.507-.363.592-.664l.04.014v.745a1.01 1.01 0 0 0-.506.136 1.003 1.003 0 0 1-1.01 0 1.003 1.003 0 0 0-1.009 0 1.003 1.003 0 0 1-1.01 0 1.003 1.003 0 0 0-1.009 0 1.003 1.003 0 0 1-1.01 0 1.003 1.003 0 0 0-.504-.136v-.745"/>
<path fill="#00F" d="M13.048 19.196c.086.397.304.719.593.873a.795.795 0 0 0 .883-.081.8.8 0 0 1 1.01 0 .8.8 0 0 0 1.01 0 .8.8 0 0 1 1.009 0c.27.206.595.236.883.081.289-.154.507-.476.592-.873l.04.02v.979a.828.828 0 0 0-.506.179.8.8 0 0 1-1.01 0 .8.8 0 0 0-1.009 0 .8.8 0 0 1-1.01 0 .8.8 0 0 0-1.009 0 .8.8 0 0 1-1.01 0 .828.828 0 0 0-.504-.18v-.979"/>
<path fill="red" d="M12 12.929c.094-.046.19-.09.285-.132l.3 4.828a5.01 5.01 0 0 0 3.453 4.466 5.01 5.01 0 0 0 3.454-4.466l.3-4.828c.096.042.19.086.285.132l-.293 4.715a5.304 5.304 0 0 1-3.746 4.756 5.304 5.304 0 0 1-3.745-4.756L12 12.929Z"/>
</g>
</svg>
